<?xml version="1.0" encoding="utf-8"?><!-- Uploaded to: SVG Repo, www.svgrepo.com, Generator: SVG Repo Mixer Tools -->
<svg width="800px" height="800px" viewBox="0 0 24 24" fill="none" xmlns="http://www.w3.org/2000/svg">
<rect x="5" y="13" width="14" height="8" stroke="#333333" stroke-width="2" stroke-linecap="round" stroke-linejoin="round"/>
<line x1="12" y1="14" x2="12" y2="20" stroke="#333333" stroke-width="2" stroke-linecap="round" stroke-linejoin="round"/>
<rect x="6.03699" y="3.86325" width="16" height="4" transform="rotate(15.0252 6.03699 3.86325)" stroke="#333333" stroke-width="2" stroke-linecap="round" stroke-linejoin="round"/>
<path d="M14.1523 4.48849C14.1523 4.48849 12.055 3.92553 11.2549 3.71076C11.2549 3.71076 10.3336 3.28581 10.5483 2.48571C10.7631 1.6856 11.5858 1.21109 12.3859 1.42585C13.186 1.64062 14.3671 3.68839 14.1523 4.48849Z" stroke="#333333" stroke-width="2" stroke-linecap="round" stroke-linejoin="round"/>
<path d="M14.1523 4.48848C14.1523 4.48848 16.2497 5.05145 17.0498 5.26622C17.0498 5.26622 18.0601 5.35975 18.2748 4.55965C18.4896 3.75954 18.0151 2.93683 17.215 2.72207C16.4149 2.5073 14.3671 3.68838 14.1523 4.48848Z" stroke="#333333" stroke-width="2" stroke-linecap="round" stroke-linejoin="round"/>
<line x1="13.7635" y1="5.93721" x2="12.9858" y2="8.83465" stroke="#333333" stroke-width="2" stroke-linecap="round" stroke-linejoin="round"/>
</svg>