<?xml version="1.0" encoding="UTF-8" standalone="no"?>
<!-- Uploaded to: SVG Repo, www.svgrepo.com, Generator: SVG Repo Mixer Tools -->

<svg
   fill="#000000"
   width="800px"
   height="800px"
   viewBox="0 0 24 24"
   id="plus"
   data-name="Flat Color"
   class="icon flat-color"
   version="1.1"
   sodipodi:docname="offer.svg"
   inkscape:version="1.3.2 (091e20e, 2023-11-25, custom)"
   xmlns:inkscape="http://www.inkscape.org/namespaces/inkscape"
   xmlns:sodipodi="http://sodipodi.sourceforge.net/DTD/sodipodi-0.dtd"
   xmlns="http://www.w3.org/2000/svg"
   xmlns:svg="http://www.w3.org/2000/svg">
  <defs
     id="defs1" />
  <sodipodi:namedview
     id="namedview1"
     pagecolor="#505050"
     bordercolor="#ffffff"
     borderopacity="1"
     inkscape:showpageshadow="0"
     inkscape:pageopacity="0"
     inkscape:pagecheckerboard="1"
     inkscape:deskcolor="#505050"
     inkscape:zoom="0.97125"
     inkscape:cx="399.4852"
     inkscape:cy="482.36808"
     inkscape:window-width="1920"
     inkscape:window-height="991"
     inkscape:window-x="-9"
     inkscape:window-y="-9"
     inkscape:window-maximized="1"
     inkscape:current-layer="plus" />
  <path
     id="primary"
     d="M12,20a1,1,0,0,1-1-1V13H5a1,1,0,0,1,0-2h6V5a1,1,0,0,1,2,0v6h6a1,1,0,0,1,0,2H13v6A1,1,0,0,1,12,20Z"
     style="fill: rgb(0, 0, 0);" />
  <path
     style="fill:#00ffff;stroke:#000000;stroke-width:0;stroke-linecap:round;stroke-linejoin:round;paint-order:stroke fill markers;stroke-dasharray:none"
     d="m 385.8361,662.51091 c -7.12887,-3.56234 -12.86651,-9.3865 -16.06794,-16.31024 -2.19573,-4.74871 -2.20121,-4.98956 -2.48167,-108.98265 L 367.0054,432.9946 262.78198,432.71351 c -103.99309,-0.28046 -104.23394,-0.28594 -108.98265,-2.48167 -6.92374,-3.20143 -12.7479,-8.93907 -16.31024,-16.06794 -2.66744,-5.33803 -3.12616,-7.41635 -3.12616,-14.1639 0,-6.74755 0.45872,-8.82587 3.12616,-14.1639 3.56234,-7.12887 9.3865,-12.86651 16.31024,-16.06794 4.74871,-2.19573 4.98956,-2.20121 108.98265,-2.48167 l 104.22342,-0.28109 0.28109,-104.22342 c 0.28046,-103.99309 0.28594,-104.23394 2.48167,-108.98265 3.20143,-6.92374 8.93907,-12.7479 16.06794,-16.31024 5.33803,-2.66744 7.41635,-3.12616 14.1639,-3.12616 6.74755,0 8.82587,0.45872 14.1639,3.12616 7.12887,3.56234 12.86651,9.3865 16.06794,16.31024 2.19573,4.74871 2.20121,4.98956 2.48167,108.98265 l 0.28109,104.22342 104.22342,0.28109 c 103.99309,0.28046 104.23394,0.28594 108.98265,2.48167 6.92374,3.20143 12.7479,8.93907 16.31024,16.06794 2.66745,5.33803 3.12616,7.41635 3.12616,14.1639 0,6.74755 -0.45871,8.82587 -3.12616,14.1639 -3.56234,7.12887 -9.3865,12.86651 -16.31024,16.06794 -4.74871,2.19573 -4.98956,2.20121 -108.98265,2.48167 l -104.22342,0.28109 -0.28109,104.22342 c -0.28046,103.99309 -0.28594,104.23394 -2.48167,108.98265 -3.20143,6.92374 -8.93907,12.7479 -16.06794,16.31024 -5.33803,2.66745 -7.41635,3.12616 -14.1639,3.12616 -6.74755,0 -8.82587,-0.45871 -14.1639,-3.12616 z"
     id="path1"
     transform="scale(0.03)" />
  <path
     style="fill:#35c9c9;stroke:#000000;stroke-width:0;stroke-linecap:round;stroke-linejoin:round;paint-order:stroke fill markers;fill-opacity:1"
     d="m 394.85199,664.6149 c -9.33139,-1.18793 -19.72677,-9.02745 -24.3871,-18.39118 -1.75617,-3.52854 -1.89847,-9.97374 -2.38252,-107.91417 -0.28314,-57.28882 -0.88682,-104.53343 -1.3415,-104.988 -0.45467,-0.45457 -47.71336,-1.07225 -105.01931,-1.37261 -97.93387,-0.51331 -104.41802,-0.6583 -107.94528,-2.41383 -6.24976,-3.1105 -11.65929,-8.45537 -15.10978,-14.92915 -2.91518,-5.46945 -3.27396,-7.07007 -3.27396,-14.60596 0,-7.53589 0.35878,-9.13651 3.27396,-14.60596 3.45049,-6.47378 8.86002,-11.81865 15.10978,-14.92915 3.52726,-1.75553 10.01141,-1.90052 107.94528,-2.41383 57.30595,-0.30036 104.56464,-0.91804 105.01931,-1.37261 0.45468,-0.45457 1.05836,-47.69918 1.3415,-104.988 0.48405,-97.94043 0.62635,-104.38562 2.38252,-107.91417 3.13011,-6.28914 8.46856,-11.66632 15.08166,-15.19106 5.5823,-2.97534 7.21886,-3.35525 14.45345,-3.35525 7.23459,0 8.87115,0.37991 14.45345,3.35525 6.6131,3.52474 11.95155,8.90192 15.08166,15.19106 1.75617,3.52855 1.89847,9.97374 2.38252,107.91422 0.28314,57.28886 0.88682,104.53346 1.3415,104.98801 0.45467,0.45454 47.71336,1.07219 105.01931,1.37255 97.93386,0.51331 104.41802,0.6583 107.94528,2.41383 6.24976,3.1105 11.65929,8.45537 15.10978,14.92915 2.91518,5.46945 3.27396,7.07007 3.27396,14.60596 0,7.53589 -0.35878,9.13651 -3.27396,14.60596 -3.45049,6.47378 -8.86002,11.81865 -15.10978,14.92915 -3.52726,1.75553 -10.01142,1.90052 -107.94528,2.41383 -57.30595,0.30036 -104.56464,0.91801 -105.01931,1.37255 -0.45468,0.45455 -1.05836,47.69915 -1.3415,104.98801 -0.48405,97.94048 -0.62635,104.38568 -2.38252,107.91422 -6.47943,13.01873 -20.10982,20.24643 -34.68312,18.39118 z"
     id="path2"
     transform="scale(0.03)" />
</svg>
