<?xml version="1.0" encoding="utf-8"?><!-- Uploaded to: SVG Repo, www.svgrepo.com, Generator: SVG Repo Mixer Tools -->
<svg width="800px" height="800px" viewBox="0 0 16 16" fill="none" xmlns="http://www.w3.org/2000/svg">
<path fill-rule="evenodd" clip-rule="evenodd" d="M16 2H0V7H16V2ZM4 4.5C4 5.05228 3.55228 5.5 3 5.5C2.44772 5.5 2 5.05228 2 4.5C2 3.94772 2.44772 3.5 3 3.5C3.55228 3.5 4 3.94772 4 4.5Z" fill="#000000"/>
<path fill-rule="evenodd" clip-rule="evenodd" d="M16 9H0V14H16V9ZM3 12.5C3.55228 12.5 4 12.0523 4 11.5C4 10.9477 3.55228 10.5 3 10.5C2.44772 10.5 2 10.9477 2 11.5C2 12.0523 2.44772 12.5 3 12.5Z" fill="#000000"/>
</svg>