<!DOCTYPE svg PUBLIC "-//W3C//DTD SVG 1.1//EN" "http://www.w3.org/Graphics/SVG/1.1/DTD/svg11.dtd">
<!-- Uploaded to: SVG Repo, www.svgrepo.com, Transformed by: SVG Repo Mixer Tools -->
<svg width="800px" height="800px" viewBox="-3.2 -3.2 38.40 38.40" version="1.1" xmlns="http://www.w3.org/2000/svg" xmlns:xlink="http://www.w3.org/1999/xlink" xmlns:sketch="http://www.bohemiancoding.com/sketch/ns" fill="#ffffff" stroke="#ffffff">
<g id="SVGRepo_bgCarrier" stroke-width="0"/>
<g id="SVGRepo_tracerCarrier" stroke-linecap="round" stroke-linejoin="round" stroke="#CCCCCC" stroke-width="0.768"/>
<g id="SVGRepo_iconCarrier"> <title>save-floppy</title> <desc>Created with Sketch Beta.</desc> <defs> </defs> <g id="Page-1" stroke-width="1.024" fill="none" fill-rule="evenodd" sketch:type="MSPage"> <g id="Icon-Set-Filled" sketch:type="MSLayerGroup" transform="translate(-154.000000, -517.000000)" fill="#000000"> <path d="M172,522 C172,521.447 172.448,521 173,521 C173.552,521 174,521.447 174,522 L174,526 C174,526.553 173.552,527 173,527 C172.448,527 172,526.553 172,526 L172,522 L172,522 Z M163,529 L177,529 C177.552,529 178,528.553 178,528 L178,517 L162,517 L162,528 C162,528.553 162.448,529 163,529 L163,529 Z M182,517 L180,517 L180,529 C180,530.104 179.104,531 178,531 L162,531 C160.896,531 160,530.104 160,529 L160,517 L158,517 C155.791,517 154,518.791 154,521 L154,545 C154,547.209 155.791,549 158,549 L182,549 C184.209,549 186,547.209 186,545 L186,521 C186,518.791 184.209,517 182,517 L182,517 Z" id="save-floppy" sketch:type="MSShapeGroup"> </path> </g> </g> </g>
</svg>